<?xml version="1.0" standalone="no"?><!DOCTYPE svg PUBLIC "-//W3C//DTD SVG 1.1//EN" "http://www.w3.org/Graphics/SVG/1.1/DTD/svg11.dtd"><svg t="1722434710248" class="icon" viewBox="0 0 1024 1024" version="1.1" xmlns="http://www.w3.org/2000/svg" p-id="67335" xmlns:xlink="http://www.w3.org/1999/xlink" width="200" height="200"><path d="M897.28 219.52L729.152 54.4A36.032 36.032 0 0 0 704 44.032H152a36.032 36.032 0 0 0-36.032 35.968v864c0 19.84 16.128 36.032 36.032 36.032h720c19.84 0 36.032-16.128 36.032-36.032V245.248c0-9.664-3.904-18.944-10.816-25.664z m-61.248 688.448H187.968V116.032h431.872l0.128 144c0 39.68 32.32 72 72 72h144v576zM691.968 260.032l-0.128-141.44 143.872 141.44h-143.744z m-395.968 144H512a36.032 36.032 0 0 0 0-72H296a36.032 36.032 0 0 0 0 72z m-36.032 144c0 19.84 16.128 35.968 36.032 35.968h432a36.032 36.032 0 0 0 0-72h-432a36.032 36.032 0 0 0-36.032 36.032z m468.032 144h-432a36.032 36.032 0 0 0 0 71.936h432a36.032 36.032 0 0 0 0-71.936z" fill="#000000" p-id="67336"></path></svg>