<svg width="14" height="14" viewBox="0 0 14 14" fill="none" xmlns="http://www.w3.org/2000/svg">
<path opacity="0.01" d="M0.839844 0.839844H13.1598V13.1598H0.839844V0.839844Z" fill="#202425"/>
<path d="M9.04297 4.95669C9.04297 4.06069 9.77097 3.30469 10.695 3.30469C11.591 3.30469 12.347 4.03269 12.347 4.95669V11.5367C12.347 11.9847 11.983 12.3487 11.535 12.3487H9.07097V4.95669H9.04297H9.04297Z" fill="#FFAA44"/>
<path d="M1.65234 10.6963C1.65234 11.5923 2.38034 12.3483 3.30434 12.3483H11.5083C11.0603 12.3483 10.6963 11.9843 10.6963 11.5363V3.30434C10.6963 2.40834 9.96834 1.65234 9.04434 1.65234H3.30434C2.40834 1.65234 1.65234 2.38034 1.65234 3.30434V10.6963Z" fill="#FF7744"/>
<path fill-rule="evenodd" clip-rule="evenodd" d="M3.10938 4.116C3.10938 3.78 3.38938 3.5 3.72537 3.5H4.53737C4.87337 3.5 5.15337 3.78 5.15337 4.116C5.15337 4.452 4.87337 4.732 4.53737 4.732H3.72537C3.38938 4.732 3.10938 4.452 3.10938 4.116ZM3.10938 6.58C3.10938 6.244 3.38938 5.964 3.72537 5.964H8.65338C8.98938 5.964 9.26937 6.244 9.26937 6.58C9.26937 6.916 8.98938 7.196 8.65338 7.196H3.72537C3.38938 7.196 3.10938 6.916 3.10938 6.58ZM3.10938 9.044C3.10938 8.708 3.38938 8.428 3.72537 8.428H6.18937C6.52537 8.428 6.80538 8.708 6.80538 9.044C6.80538 9.38 6.52537 9.66 6.18937 9.66H3.72537C3.38938 9.66 3.10938 9.38 3.10938 9.044Z" fill="white"/>
</svg>
