<svg width="14" height="14" viewBox="0 0 14 14" fill="none" xmlns="http://www.w3.org/2000/svg">
<path d="M7.00124 2.35156C7.00124 2.35156 7.71218 2.46154 7.71218 3.00781V3.71875H8.25905C8.25905 3.71875 8.58718 3.75134 8.58718 4.21094C8.58718 4.67053 8.31374 4.96623 8.31374 5.57812C8.31374 6.19002 8.85285 6.72273 9.45835 6.72273C10.0639 6.72273 10.5263 6.08579 10.5263 5.65474C10.5263 5.2237 10.3372 4.38211 10.3372 4.10156C10.3372 3.82102 10.5341 3.72619 10.7126 3.72619H11.2122C11.2122 3.72619 11.2061 2.62752 12.3734 2.43491C12.4602 2.41982 12.5489 2.44746 12.6117 2.50916C12.6745 2.57086 12.7038 2.65906 12.6903 2.74608C12.4519 4.28209 11.4856 10.5 11.4856 10.5H2.51687L1.31188 2.74613C1.29825 2.65898 1.3275 2.57061 1.39042 2.5088C1.45335 2.44699 1.54223 2.41933 1.62912 2.43452C2.79637 2.62752 2.7903 3.72619 2.7903 3.72619H3.28993C3.46843 3.72619 3.6653 3.82102 3.6653 4.10156C3.6653 4.38211 3.47614 5.2237 3.47614 5.65474C3.47614 6.08579 3.93863 6.72273 4.54413 6.72273C5.14963 6.72273 5.68874 6.19002 5.68874 5.57812C5.68874 4.96623 5.4153 4.67053 5.4153 4.21094C5.4153 3.75134 5.74343 3.71875 5.74343 3.71875H6.2903V3.00781C6.2903 2.46154 7.00124 2.35156 7.00124 2.35156Z" fill="#FFB41F"/>
<path d="M2.38939 9.67969L1.31188 2.74613C1.29825 2.65898 1.3275 2.57061 1.39042 2.5088C1.45335 2.44699 1.54223 2.41933 1.62912 2.43452C2.79637 2.62752 2.7903 3.72619 2.7903 3.72619H3.28993C3.46843 3.72619 3.6653 3.82102 3.6653 4.10156C3.6653 4.38211 3.47614 5.2237 3.47614 5.65474C3.47614 6.08579 3.93863 6.72273 4.54413 6.72273C5.14963 6.72273 5.68874 6.19002 5.68874 5.57812C5.68874 4.96623 5.4153 4.67053 5.4153 4.21094C5.4153 3.75134 5.74343 3.71875 5.74343 3.71875H6.2903V3.00781C6.2903 2.46154 7.00124 2.35156 7.00124 2.35156C7.00124 2.35156 7.71218 2.46154 7.71218 3.00781V3.71875H8.25905C8.25905 3.71875 8.58718 3.75134 8.58718 4.21094C8.58718 4.67053 8.31374 4.96623 8.31374 5.57812C8.31374 6.19002 8.85285 6.72273 9.45835 6.72273C9.51982 6.72273 9.57981 6.71617 9.63794 6.70392L9.52939 9.00506C9.52939 9.37738 9.2361 9.67969 8.87489 9.67969H2.38939V9.67969Z" fill="#FFC556"/>
<path d="M6.73878 6.02418C6.79686 5.93708 6.89462 5.88477 6.99931 5.88477C7.104 5.88477 7.20176 5.93708 7.25984 6.02418L7.97729 7.10032C8.0474 7.2055 8.0474 7.34252 7.97729 7.4477L7.25984 8.52384C7.20176 8.61094 7.104 8.66325 6.99931 8.66325C6.89462 8.66325 6.79686 8.61094 6.73878 8.52384L6.02133 7.4477C5.95122 7.34252 5.95122 7.2055 6.02133 7.10032L6.73878 6.02418V6.02418Z" fill="#FF2A5C"/>
<path d="M6.3241 7.21864C6.28702 7.21861 6.25315 7.19757 6.2367 7.16433C6.22024 7.1311 6.22404 7.09141 6.2465 7.0619L6.82684 6.30016C6.85222 6.26686 6.89602 6.25346 6.93567 6.26686C6.97536 6.28024 7.00207 6.31745 7.00206 6.35933V7.12102C7.00212 7.14693 6.99185 7.17179 6.97354 7.19011C6.95522 7.20843 6.93035 7.2187 6.90445 7.21864H6.3241V7.21864Z" fill="white" fill-opacity="0.3"/>
<path d="M11.7852 10.623C11.785 10.4343 11.6321 10.2814 11.4434 10.2812H2.55664C2.36792 10.2814 2.21496 10.4343 2.21484 10.623V11.3066C2.21496 11.4954 2.36792 11.6483 2.55664 11.6484H11.4434C11.6321 11.6483 11.785 11.4954 11.7852 11.3066V10.623Z" fill="#FFA652"/>
<path d="M8.72266 10.623C8.72254 10.4343 8.56958 10.2814 8.38086 10.2812H2.55664C2.36792 10.2814 2.21496 10.4343 2.21484 10.623V11.3066C2.21496 11.4954 2.36792 11.6483 2.55664 11.6484H8.38086C8.56958 11.6483 8.72254 11.4954 8.72266 11.3066V10.623Z" fill="#FFB443"/>
<path d="M5.38672 10.623C5.3866 10.4343 5.23364 10.2814 5.04492 10.2812H2.55664C2.36792 10.2814 2.21496 10.4343 2.21484 10.623V11.3066C2.21496 11.4954 2.36792 11.6483 2.55664 11.6484H5.04492C5.23364 11.6483 5.3866 11.4954 5.38672 11.3066V10.623Z" fill="#FFCD61"/>
</svg>
