<?xml version="1.0" standalone="no"?><!DOCTYPE svg PUBLIC "-//W3C//DTD SVG 1.1//EN" "http://www.w3.org/Graphics/SVG/1.1/DTD/svg11.dtd"><svg t="1760436911102" class="icon" viewBox="0 0 1025 1024" version="1.1" xmlns="http://www.w3.org/2000/svg" p-id="2759" xmlns:xlink="http://www.w3.org/1999/xlink" width="200.1953125" height="200"><path d="M345.646176 554.493463a33.910739 33.866085 0 1 0 67.821479 0 33.910739 33.866085 0 1 0-67.821479 0Z" p-id="2760"></path><path d="M609.39671 554.493463a33.910739 33.866085 0 1 0 67.821478 0 33.910739 33.866085 0 1 0-67.821478 0Z" p-id="2761"></path><path d="M511.908662 684.193364c55.457364 0 72.562934-39.075393 72.562934-87.278494 0-48.202085-32.487897-87.278494-72.562934-87.278493-40.076052 0-72.562934 39.076408-72.562934 87.278493 0 48.2031 17.104555 87.278494 72.562934 87.278494z" p-id="2762"></path><path d="M358.834363 293.405939l0.56934-0.345055c45.51269-27.440967 96.313847-41.186315 152.08379-41.186315 56.226632 0 107.40329 13.971663 153.201157 41.864246 49.315393-59.786783 105.937824-86.406723 168.975223-78.124401 69.29202 9.10335 124.631659 43.874696 165.036527 103.577245l25.094597 37.079152-43.030327-12.373249-1.203631-0.346069-8.200119-2.357535-0.555132-0.160348 0.519611 0.975286c16.599152 31.265998 27.833721 64.220733 33.669202 98.810418l6.999532 41.494835-30.809308-24.267481 0.099456 1.522299c2.434664 39.376809-5.335152 72.570038-22.920753 93.705642l-14.222335 17.094406-11.952079-18.751683-0.328817-0.515552c-0.868725-1.362965-1.669455-2.61937-2.409292-3.784436l-0.058862-0.092353-0.257776 0.387679c-26.059734 38.690759-63.305324 61.872333-109.251362 71.220266-2.754347 34.09443-12.488944 63.874664-29.326589 89.3133-45.083401 68.11782-138.487627 101.201443-278.714735 101.201443-140.226093 0-233.630319-33.084638-278.713721-101.202458-16.84069-25.443711-26.577316-55.232063-29.331663-89.332583-45.89225-9.365185-83.097245-32.541685-109.134652-71.199968l-0.258791-0.387679-0.058862 0.092353-2.408277 3.784436-0.328817 0.515552-11.953094 18.751683-14.222335-17.094406c-17.585602-21.135604-25.354402-54.328833-22.920753-93.705642l0.099456-1.522299-30.809308 24.267481 7.000547-41.494835c5.835481-34.589685 17.07005-67.54442 33.668187-98.810418l0.519611-0.975286-0.555132 0.160348-8.200119 2.357535-1.203631 0.346069L0 356.270811l25.094597-37.080167c40.405883-59.701534 95.744507-94.473895 165.037542-103.577245 62.919675-8.266085 119.449752 18.24019 168.702224 77.79254z m313.474917 44.124352l-13.443932-9.300234-0.172527 0.253717c-43.422065-29.443298-92.348765-44.133487-147.205328-44.133487-52.397542 0-99.385847 13.402323-141.333313 40.263802l-18.667449 12.916202C304.256888 269.266331 252.312991 240.199548 194.361086 247.812059c-42.593935 5.595972-78.702874 22.147425-108.682022 49.918224l-0.22327 0.207033L128.441467 285.644242l-26.370284 37.562228c-17.147179 24.4258-30.303905 49.994339-39.495548 76.744182l-0.207032 0.60689 28.463952-23.17447-10.273491 45.760317c-7.73531 34.456737-7.754593 64.724107-1.517225 86.459497l0.101487 0.348099 0.082204-0.141066c0.539909-0.931647 1.170141-2.019584 1.536508-2.648801l0.074085-0.127873 15.47265-26.646327 13.233855 27.825601c20.049697 42.158557 51.643497 66.82691 93.720865 77.198843 1.934335-44.030985 13.805225-94.220178 35.400563-150.514807-3.683964-3.142026-14.543033-0.403917-26.97007 4.989082-17.748995 7.702834-24.916995 10.715972-15.133685-8.522846 9.78331-19.237804 28.785665-34.024404 48.526843-37.349106 19.740163-3.324702 1.727302-15.641118-15.831913-20.815921-17.561245-5.174803-25.455889-14.464888 2.496571-16.837645 17.315647-1.469526 25.165637-0.624143 31.715584 0.914394l0.495254 0.11874c0.328817 0.07916 0.654589 0.160349 0.978331 0.243568l0.485106 0.124828 0.241538 0.063937 0.923529 0.246612c0.613994 0.166438 1.227988 0.336936 1.851116 0.510478l0.625157 0.173542c2.094684 0.582533 4.302018 1.187393 6.896016 1.761808 12.975064 2.868012-27.548543-41.961673-79.403132-41.961673-51.853574 0-71.752056 23.468781-82.682164 37.803766-7.371988 9.66863-4.796258 3.252646-1.096056-3.712381l0.235449-0.440452 0.238494-0.441466 0.119754-0.220226 0.338965-0.619069c1.532448-2.782763 3.127818-5.447802 4.221844-6.999532 4.051346-5.747187 29.438224-45.299568 78.623714-45.299568 49.185491 0 92.970878 30.189225 115.612543 84.619544 4.746529 11.411156-8.660868 5.803005-21.603456 0.384635l-0.791596-0.331862-1.096056-0.457704c-4.736381-1.97493-9.286026-3.809808-12.718303-4.644028-13.19935-3.209007-14.032555-3.068955 0 18.24222 9.361126 14.216246 1.278731 32.912111-6.327691 48.393895-42.51579 110.003378-45.002212 191.637185-9.427092 245.387544 37.803766 57.11667 121.182129 86.650291 251.633031 86.650291 130.450902 0 213.830279-29.532607 251.634045-86.649276 35.027092-52.923243 33.155679-132.877447-7.491742-240.326406-8.091528-16.3089-19.244908-37.651536-8.837455-53.456048 14.032555-21.311175 13.19935-21.451227 0-18.24222-3.828075 0.930632-9.046517 3.105491-14.363401 5.332107l-1.10113 0.460749-0.37956 0.158319-1.139695 0.474958c-0.632262 0.263865-1.262494 0.524686-1.889681 0.781447l-0.749986 0.305474c-11.096547 4.506006-20.716464 7.467386-16.584943-2.464095 22.641665-54.430319 66.426038-84.619544 115.611528-84.619544s74.572369 39.552381 78.624729 45.299568c4.051346 5.746172 14.987544 26.768111 4.057436 12.432111-10.930109-14.33397-30.827576-37.803766-82.682165-37.803766s-92.378196 44.8307-79.403132 41.962688c3.11361-0.688079 5.669043-1.421828 8.142272-2.107877l0.616024-0.170498 0.615008-0.167453c0.243568-0.065966 0.487136-0.131933 0.729689-0.195869l0.487136-0.127873 0.49018-0.126858 0.492211-0.123814c6.75089-1.675544 14.502438-2.677217 32.638097-1.137665 27.95449 2.372757 20.058831 11.662842 2.4986 16.83663-17.559215 5.175818-35.57309 17.492234-15.831913 20.816936 19.740163 3.324702 38.742517 18.111302 48.525828 37.349106 9.78331 19.238819 2.61531 16.224666-15.133685 8.522846-11.958168-5.190026-22.465078-7.921031-26.525558-5.320943 21.682616 56.441784 33.597146 106.750731 35.532496 150.874069 42.131156-10.35671 73.762505-35.031152 93.83047-77.226244l13.233855-27.825601 15.471635 26.646327 0.074085 0.127873 1.536508 2.648801 0.082204 0.141066 0.101487-0.348099c6.237368-21.735389 6.218085-52.002759-1.517225-86.459497l-10.272476-45.760317 28.462937 23.17447-0.207032-0.60689c-9.191643-26.749843-22.347354-52.318383-39.495548-76.744182L895.35353 285.644242l42.984658 12.293074-0.222255-0.207033c-29.978133-27.770799-66.088087-44.322252-108.682022-49.918224-57.951905-7.612511-109.895802 21.454272-157.124631 89.718232z" p-id="2763"></path></svg>