<svg width="14" height="14" viewBox="0 0 14 14" fill="none" xmlns="http://www.w3.org/2000/svg">
<path d="M12.6655 1.75H4.6396C4.14325 1.75 3.73438 2.16753 3.73438 2.68086V8.64062C3.73438 9.11326 4.20446 9.625 4.71715 9.625H8.64857L10.7548 11.2957L11.2697 9.625H12.58C13.0757 9.625 13.5708 9.44651 13.5631 8.93286V2.68086C13.5708 2.16753 13.1612 1.75 12.6655 1.75Z" fill="#1AA086"/>
<path d="M4.38886 10.2812C3.64128 10.2812 3.0786 9.71888 3.0786 8.96875V5.03125H1.11273C0.759288 5.03125 0.432133 5.34816 0.437575 5.71506V10.5866C0.432133 10.9535 0.724684 11.2518 1.07813 11.2518H2.10896L2.32973 12.25L3.60699 11.2656H6.68252C7.04846 11.2656 7.33748 10.9474 7.33748 10.6094V10.2812H4.38886Z" fill="#53BFAA"/>
<path fill-rule="evenodd" clip-rule="evenodd" d="M10.2097 8.43105C10.4221 8.43105 10.6048 8.40798 10.756 8.36312V7.70947C10.6506 7.75113 10.5298 7.77259 10.3946 7.77259C10.1709 7.77259 9.98631 7.73286 9.84115 7.65436C9.696 7.57552 9.54828 7.45312 9.39575 7.28746C9.75304 7.16377 10.0277 6.94524 10.2209 6.63152C10.4135 6.31718 10.5102 5.94227 10.5102 5.50712C10.5102 4.95212 10.3523 4.50511 10.0353 4.16641C9.71941 3.82708 9.31116 3.6582 8.81065 3.6582C8.26431 3.6582 7.82723 3.83445 7.50135 4.18756C7.17482 4.54068 7.01172 5.00563 7.01172 5.58145C7.01172 6.09094 7.1604 6.51807 7.45712 6.86319C7.75448 7.20861 8.14926 7.3887 8.64113 7.40439C8.99394 7.81582 9.28104 8.08916 9.50535 8.22566C9.72902 8.36216 9.96389 8.43105 10.2097 8.43105ZM8.07204 6.41425C7.90094 6.19667 7.81474 5.90508 7.81474 5.53978C7.81474 5.17577 7.90254 4.88225 8.07651 4.66116C8.25114 4.4391 8.48603 4.32791 8.7805 4.32791C9.07083 4.32791 9.29768 4.43589 9.46207 4.65122C9.62646 4.86655 9.70881 5.16776 9.70881 5.55292C9.70881 5.92366 9.62454 6.21398 9.45439 6.42514C9.28489 6.63599 9.05256 6.74142 8.76001 6.74142C8.4729 6.74142 8.24316 6.63246 8.07204 6.41425Z" fill="white"/>
</svg>
